<?xml version="1.0" encoding="utf-8"?>
<!-- Generator: Adobe Illustrator 23.0.2, SVG Export Plug-In . SVG Version: 6.00 Build 0)  -->
<svg version="1.1" id="Layer_1" xmlns="http://www.w3.org/2000/svg" xmlns:xlink="http://www.w3.org/1999/xlink" x="0px" y="0px"
	 viewBox="0 0 37.1 33" style="enable-background:new 0 0 37.1 33;" xml:space="preserve">
<style type="text/css">
	.st0{opacity:0.5;}
	.st1{fill:#FF8A61;}
	.st2{opacity:0.5;fill:#FF8A61;enable-background:new    ;}
</style>
<title>Asset 6</title>
<g>
	<g id="Layer_2-2">
		<g class="st0">
			<circle class="st1" cx="34" cy="13.4" r="3.1"/>
			<circle class="st1" cx="34" cy="23.7" r="3.1"/>
		</g>
		<polygon class="st1" points="14.4,12.4 14.4,18.6 28.9,6.2 28.9,0 		"/>
		<path class="st2" d="M14.4,4.1C6.5,4.1,0,10.6,0,18.6S6.5,33,14.4,33s14.4-6.5,14.4-14.4S22.4,4.1,14.4,4.1L14.4,4.1z M14.4,26.9
			c-4.6,0-8.3-3.7-8.3-8.3s3.7-8.3,8.3-8.3s8.3,3.7,8.3,8.3l0,0C22.8,23.2,19,26.9,14.4,26.9z"/>
	</g>
</g>
</svg>
