<?xml version="1.0" encoding="utf-8"?>
<!-- Generator: Adobe Illustrator 24.0.3, SVG Export Plug-In . SVG Version: 6.00 Build 0)  -->
<svg version="1.1" id="Layer_1" xmlns="http://www.w3.org/2000/svg" xmlns:xlink="http://www.w3.org/1999/xlink" x="0px" y="0px"
	 viewBox="0 0 15 13.3" style="enable-background:new 0 0 15 13.3;" xml:space="preserve">
<style type="text/css">
	.st0{fill:#FFFFFF;}
</style>
<title>Asset 7</title>
<g id="Layer_2_1_">
	<g id="Layer_2-2">
		<path class="st0" d="M5.8,1.7C2.6,1.7,0,4.3,0,7.5s2.6,5.8,5.8,5.8s5.8-2.6,5.8-5.8S9.1,1.7,5.8,1.7C5.8,1.7,5.8,1.7,5.8,1.7z
			 M5.8,10.9c-1.9,0-3.4-1.5-3.4-3.4S4,4.1,5.8,4.1c1.9,0,3.4,1.5,3.4,3.4c0,0,0,0,0,0C9.2,9.4,7.7,10.9,5.8,10.9z"/>
		<circle class="st0" cx="13.8" cy="5.4" r="1.2"/>
		<circle class="st0" cx="13.8" cy="9.6" r="1.2"/>
		<polygon class="st0" points="5.8,5 5.8,7.5 11.7,2.5 11.7,0 		"/>
	</g>
</g>
</svg>
